<?xml version="1.0" encoding="UTF-8" standalone="no"?>
<!-- Created with Inkscape (http://www.inkscape.org/) -->

<svg
   width="212.46187mm"
   height="167.88115mm"
   viewBox="0 0 212.46187 167.88114"
   version="1.1"
   id="svg1"
   xml:space="preserve"
   xmlns="http://www.w3.org/2000/svg"
   xmlns:svg="http://www.w3.org/2000/svg"><defs
     id="defs1" /><g
     id="layer3"
     transform="translate(-9.6714831,-4.9051812)"><path
       style="fill:#000000;fill-opacity:1;stroke:#000000;stroke-width:2.788;stroke-linecap:round;stroke-linejoin:round;stroke-dasharray:none;stroke-opacity:1"
       d="m 152.4303,97.946645 c -1.38824,-6.78918 8.81031,-11.918479 16.53221,-8.13695 V 50.158229 l 0.0323,39.683756 c 1.87691,8.67242 -13.16231,14.595965 -16.56451,8.10466 z"
       id="path10" /><path
       style="fill:#000000;fill-opacity:1;stroke:#000000;stroke-width:2.788;stroke-linecap:round;stroke-linejoin:round;stroke-dasharray:none;stroke-opacity:1"
       d="m 207.30368,30.806103 c 2.06412,14.540265 19.58814,12.584664 11.15602,34.178403 7.31163,-18.105828 -8.12848,-24.485102 -11.15602,-34.178403 z m -0.0323,37.100599 c -0.56841,9.283749 -11.92192,14.544186 -15.27293,8.040081 -1.38824,-6.78918 7.45415,-11.98306 15.17605,-8.20153 v -36.93915 z"
       id="path10-9" /></g><g
     id="layer1"
     style="display:inline"
     transform="translate(-18.874607,-26.11173)"><path
       style="display:inline;fill:#b9460d;fill-opacity:0.983087;stroke:#000000;stroke-width:0.388056;stroke-linecap:round;stroke-linejoin:round;stroke-opacity:1"
       d="m 64.094597,154.27909 2.001949,2.32484 c -2.566486,0.16736 -5.670864,-0.83957 -8.395264,3.19666 4.54232,-0.64462 5.709064,-0.61089 11.25624,0.11204 5.696862,0.74243 17.983163,-0.7657 23.483985,0.59279 -0.650433,-1.36637 0.239323,-0.77759 -3.373217,-3.21329 -5.625376,-2.11712 -4.521906,0.62541 -13.195478,-0.52608 -2.316367,-0.30752 -10.868914,-5.84661 -9.937715,-5.42531 z"
       id="path9" /><path
       style="display:inline;fill:#fafafc;fill-opacity:1;stroke:#000000;stroke-width:0.388056;stroke-linecap:round;stroke-linejoin:round;stroke-opacity:1"
       d="m 103.93173,67.583025 2.37454,6.940959 c 4.3797,-11.319075 33.26051,-20.343897 33.74585,-21.051198 0.24236,-0.353196 -17.11014,0.0028 -17.17013,0.102801 z"
       id="path5" /><path
       style="display:inline;fill:#aa5715;fill-opacity:1;stroke:#000000;stroke-width:0.388056;stroke-linecap:round;stroke-linejoin:round;stroke-opacity:1"
       d="m 28.57618,189.79751 c 4.031344,-3.40503 16.320102,-27.13215 16.499921,-29.31885 4.903234,-3.67026 9.806467,-8.71796 14.709701,-9.88734 6.969019,8.29764 5.275292,7.07349 10.185705,-5.70095 28.659201,-20.1683 33.184443,-56.40721 37.635523,-73.106237 0,0 -5.76778,-4.63828 -6.49841,-4.63828 -0.73063,0 -69.874304,84.093997 -69.874304,84.093997 z"
       id="path2" /><path
       style="display:inline;fill:#3c716b;fill-opacity:1;stroke:#000000;stroke-width:0.388056;stroke-linecap:round;stroke-linejoin:round;stroke-opacity:1"
       d="M 19.087638,136.6273 C 18.298682,106.48101 42.235827,71.390777 65.117159,61.00738 77.445865,1.6234151 127.29717,34.660243 135.71402,42.924354 l -13.33395,12.968634 c -9.68585,7.679977 -18.62595,14.117046 -26.850552,19.361623 3.57958,31.228939 -22.552572,49.966879 -36.845407,58.288119 -10.657672,6.20485 -13.208073,6.61336 -21.613955,18.11593 -8.438833,11.54767 -4.81855,32.50633 -9.12366,42.14023 -6.344419,-17.28737 -8.476685,-42.56862 -8.858858,-57.17159 z"
       id="path1" /><path
       style="display:inline;fill:#aa5715;fill-opacity:1;stroke:#000000;stroke-width:0.388056;stroke-linecap:round;stroke-linejoin:round;stroke-opacity:1"
       d="m 84.204797,58.541513 c -0.08313,-3.523978 3.645545,-8.460074 19.909593,-8.858857 7.519,-2.19554 19.72892,-7.215789 28.95111,-6.392989 l -0.82196,3.744465 c 0,0 -9.46381,6.448715 -10.21026,6.348671 -11.71515,-1.570133 -27.990173,12.274703 -32.805422,9.816459 z"
       id="path4" /><path
       style="display:inline;fill:#fafafc;fill-opacity:1;stroke:#000000;stroke-width:0.388056;stroke-linecap:round;stroke-linejoin:round;stroke-opacity:1"
       d="m 63.016605,65.482472 c 3.091193,-5.839808 19.432905,-7.954817 22.832103,-7.214944 2.564823,1.604592 4.000038,3.020915 5.11439,4.383762 -7.590292,8.362112 -18.04508,4.406889 -27.946493,2.831182 z"
       id="path3" /><path
       style="display:inline;fill:#21354d;fill-opacity:1;stroke:#000000;stroke-width:0.388056;stroke-linecap:round;stroke-linejoin:round;stroke-opacity:1"
       d="M 134.35976,42.005054 118.43102,53.70736 c -2.05191,2.450034 61.57427,-1.154634 62.35357,-1.239187 1.87668,-0.203618 4.03174,-1.901976 3.6988,-1.780905 -15.86702,-4.071265 -32.99611,-4.836612 -50.12363,-8.682214 z"
       id="path6" /><path
       style="display:inline;fill:#241a15;fill-opacity:1;stroke:#000000;stroke-width:0.388056;stroke-linecap:round;stroke-linejoin:round;stroke-opacity:1"
       d="m 105.73187,48.611796 c 2.12695,7.12185 10.06776,0.579972 10.33263,-1.74363 0.14,-1.228206 -11.7908,-3.138887 -10.33263,1.74363 z"
       id="path7" /><path
       style="fill:#000000;fill-opacity:1;stroke:#000000;stroke-width:0.388056;stroke-linecap:round;stroke-linejoin:round;stroke-opacity:1"
       d="m 112.27048,47.481664 c 1.11945,0.443149 -0.49764,2.598571 -2.19568,1.856647 -1.05073,-0.459098 -0.92942,-3.093763 2.19568,-1.856647 z"
       id="path8" /></g></svg>
